<svg width="50" height="50" viewBox="0 0 50 50" fill="none" xmlns="http://www.w3.org/2000/svg">
<circle cx="25" cy="25" r="25" fill="white"/>
<path d="M10.5586 24.75C10.5586 22.3477 10.6074 19.6182 10.7051 16.5615C10.7246 15.8193 12.3555 15.3506 15.5977 15.1553C15.6562 14.9697 15.6562 14.7402 15.5977 14.4668C13.0391 14.5449 11.042 14.584 9.60645 14.584C8.40527 14.584 6.70117 14.5449 4.49414 14.4668C4.41602 14.6426 4.41602 14.8721 4.49414 15.1553C6.74023 15.3701 7.87305 15.8389 7.89258 16.5615C7.99023 18.8564 8.03906 21.5859 8.03906 24.75C8.03906 27.8457 7.98047 30.9268 7.86328 33.9932C7.84375 34.7158 6.71094 35.1846 4.46484 35.3994C4.40625 35.6436 4.40625 35.873 4.46484 36.0879C6.34961 36.0293 10.7295 36 17.6045 36C19.9482 36 21.7061 35.5605 22.8779 34.6816C24.0498 33.8027 25.1436 32.3232 26.1592 30.2432C26.0811 30.0771 25.9102 29.9453 25.6465 29.8477C25.2656 30.5508 24.8457 31.1758 24.3867 31.7227C23.9277 32.2695 23.3223 32.8213 22.5703 33.3779C21.8184 33.9248 20.8809 34.3496 19.7578 34.6523C18.6445 34.9551 17.3799 35.1064 15.9639 35.1064H10.6758C10.5977 31.6787 10.5586 28.2266 10.5586 24.75ZM12.7852 25.834C12.7852 28.5098 12.8242 31.4004 12.9023 34.5059H15.9346C20.2705 34.5059 23.4199 32.7041 25.3828 29.1006C26.2031 29.4033 26.7207 29.7842 26.9355 30.2432C25.5391 32.5576 24.7188 34.6768 24.4746 36.6006H12.6533C8.7959 36.6006 5.92969 36.6299 4.05469 36.6885C3.84961 36.0537 3.83984 35.4336 4.02539 34.8281C6.16406 34.6133 7.24316 34.3252 7.2627 33.9639C7.37988 30.8975 7.43848 27.8262 7.43848 24.75C7.43848 21.6055 7.38965 18.8857 7.29199 16.5908C7.27246 16.2295 6.18359 15.9414 4.02539 15.7266C3.85938 15.082 3.87891 14.4521 4.08398 13.8369C5.7832 13.9346 7.9707 13.9834 10.6465 13.9834C11.0469 13.9834 11.8477 13.9736 13.0488 13.9541C14.25 13.9346 15.2998 13.9248 16.1982 13.9248C16.3838 14.4814 16.3936 15.082 16.2275 15.7266C14.0693 15.9414 12.9805 16.2295 12.9609 16.5908C12.8438 19.0322 12.7852 22.1133 12.7852 25.834ZM37.8926 13.3828C39.2891 13.3828 40.5732 13.5781 41.7451 13.9688C42.917 14.3594 43.9717 14.6133 44.9092 14.7305C44.3916 16.5469 44.3721 18.5049 44.8506 20.6045C44.3525 21.0244 43.7812 21.2686 43.1367 21.3369C43.0586 21.1514 42.917 20.7656 42.7119 20.1797C42.5166 19.584 42.3262 19.0957 42.1406 18.7148C41.9648 18.334 41.7158 17.8994 41.3936 17.4111C41.0811 16.9229 40.6611 16.5371 40.1338 16.2539C39.6162 15.9609 39.0205 15.7607 38.3467 15.6533C37.3604 15.7412 36.5986 16.0439 36.0615 16.5615C35.5244 17.0791 35.2559 17.748 35.2559 18.5684C35.2559 19.4082 35.4707 20.1016 35.9004 20.6484C36.3301 21.1855 36.8867 21.5908 37.5703 21.8643C38.2637 22.1279 39.0254 22.3623 39.8555 22.5674C40.6855 22.7627 41.5107 23.0068 42.3311 23.2998C43.1514 23.583 43.9033 23.959 44.5869 24.4277C45.2803 24.8867 45.8418 25.5752 46.2715 26.4932C46.7012 27.4111 46.916 28.5293 46.916 29.8477C46.916 31.4492 46.4521 32.8262 45.5244 33.9785C44.5967 35.1309 43.5029 35.9561 42.2432 36.4541C40.9834 36.9521 39.6943 37.2012 38.376 37.2012C35.4756 37.2012 32.6045 36.5615 29.7627 35.2822C29.8213 34.0225 29.8506 33.251 29.8506 32.9678C29.8506 31.3857 29.6992 29.6865 29.3965 27.8701C30.2754 27.4502 31.2568 27.4307 32.3408 27.8115C32.7021 30.0283 33.4004 31.7275 34.4355 32.9092C35.4805 34.0908 36.623 34.75 37.8633 34.8867C39.0254 34.8086 39.9189 34.4326 40.5439 33.7588C41.1787 33.0752 41.4961 32.2109 41.4961 31.166C41.4961 30.2871 41.291 29.5449 40.8809 28.9395C40.4707 28.3242 39.9287 27.8506 39.2549 27.5186C38.5811 27.1768 37.8486 26.8691 37.0576 26.5957C36.2764 26.3223 35.4854 26.0342 34.6846 25.7314C33.8838 25.4189 33.1465 25.0479 32.4727 24.6182C31.8086 24.1885 31.2715 23.5879 30.8613 22.8164C30.4512 22.0449 30.2461 21.1074 30.2461 20.0039C30.2461 19.0078 30.4023 18.1143 30.7148 17.3232C31.0371 16.5322 31.4521 15.8975 31.96 15.4189C32.4775 14.9404 33.0781 14.54 33.7617 14.2178C34.4551 13.8955 35.1387 13.6758 35.8125 13.5586C36.4961 13.4414 37.1895 13.3828 37.8926 13.3828ZM37.8926 13.9834C37.0723 13.9834 36.2764 14.0811 35.5049 14.2764C34.7334 14.4619 33.9814 14.7695 33.249 15.1992C32.5264 15.6289 31.9453 16.2588 31.5059 17.0889C31.0664 17.9189 30.8467 18.8906 30.8467 20.0039C30.8467 20.9902 31.0518 21.8398 31.4619 22.5527C31.8721 23.2559 32.4092 23.8027 33.0732 24.1934C33.7471 24.584 34.4844 24.9307 35.2852 25.2334C36.0859 25.5264 36.877 25.8242 37.6582 26.127C38.4492 26.4297 39.1816 26.7715 39.8555 27.1523C40.5293 27.5332 41.0713 28.0654 41.4814 28.749C41.8916 29.4229 42.0967 30.2285 42.0967 31.166C42.0967 32.4648 41.6816 33.5146 40.8516 34.3154C40.0215 35.1162 38.8447 35.5166 37.3213 35.5166C35.8564 35.5166 34.4941 34.9062 33.2344 33.6855C31.9746 32.4648 31.1445 30.6387 30.7441 28.207C30.5488 28.0801 30.3193 28.0801 30.0557 28.207C30.3193 29.7402 30.4512 31.3271 30.4512 32.9678C30.4512 33.4268 30.4316 34.0762 30.3926 34.916C32.8145 36.0391 35.124 36.6006 37.3213 36.6006C39.1377 36.6006 40.8174 36.0635 42.3604 34.9893C43.9033 33.9053 44.6748 32.3916 44.6748 30.4482C44.6748 29.3447 44.46 28.4121 44.0303 27.6504C43.6006 26.8789 43.0391 26.2783 42.3457 25.8486C41.6523 25.4189 40.8906 25.0479 40.0605 24.7354C39.2305 24.4229 38.4053 24.1299 37.585 23.8564C36.7646 23.5732 36.0078 23.2607 35.3145 22.9189C34.6309 22.5771 34.0742 22.0938 33.6445 21.4688C33.2148 20.834 33 20.0674 33 19.1689C33 17.9092 33.4248 16.9033 34.2744 16.1514C35.124 15.3994 36.3301 15.0234 37.8926 15.0234C40.6074 15.0234 42.4775 16.9033 43.5029 20.6631C43.8057 20.7119 44.0156 20.6436 44.1328 20.458C43.8105 18.0752 43.1025 16.4004 42.0088 15.4336C40.9248 14.4668 39.5527 13.9834 37.8926 13.9834Z" fill="black"/>
</svg>
